# xmcd
#
# Track frame offsets:
#	150
#	13242
#	32657
#	45490
#	69412
#	81642
#	94461
#	114553
#	142597
#	164433
#	196740
#	210614
#	220513
#	242213
#	258492
#
# Disc length: 3649 seconds
#
# Revision: 2
# Processed by: cddbd v1.5.1PL0 Copyright (c) Steve Scherf et al.
# Submitted via: AudioConverter v4.5 Copyright (c) AC Productions Ltd
#
DISCID=d10e3f0f
DTITLE=Various Artist - Classic Jazz - Latin Jazz - Disc 2
DYEAR=2004
DGENRE=Jazz
TTITLE0=Antonio Carlos Jobim - Wave
TTITLE1=Gerry Mulligan - Prelude in E minor
TTITLE2=Vince Guaraldi Trio - Pebble Beach
TTITLE3=TitoPuente - Ran Kan Kan
TTITLE4=Stand Getz and Joao Gilberto - Meditation
TTITLE5=Laurindo Almeida adn Bud Shank - Atabaque
TTITLE6=Dizzy Gillespi - In a Shanty in Old Shanty Town
TTITLE7=Baden Powell - Consolacao
TTITLE8=Billy Taylor Trio - Mambe Inn
TTITLE9=Birelli Lagrene - How Insensitive
TTITLE10=Walter Wanderley - O Barquinho
TTITLE11=Bola Sete - Up The Creek
TTITLE12=Stan Getz and Charlie Bird - Samba Triste
TTITLE13=Elis Regina and Antonio Carlos Jobim - Aguas De Marco
TTITLE14=Wes Montgomery - Con Alma
EXTD=YEAR: 2004
EXTT0=
EXTT1=
EXTT2=
EXTT3=
EXTT4=
EXTT5=
EXTT6=
EXTT7=
EXTT8=
EXTT9=
EXTT10=
EXTT11=
EXTT12=
EXTT13=
EXTT14=
PLAYORDER=
